<?xml version="1.0" encoding="utf-8"?>
<!-- Generator: Adobe Illustrator 23.1.1, SVG Export Plug-In . SVG Version: 6.00 Build 0)  -->
<svg version="1.1" id="Capa_1" xmlns="http://www.w3.org/2000/svg" xmlns:xlink="http://www.w3.org/1999/xlink" x="0px" y="0px"
	 viewBox="0 0 155 44.1" style="enable-background:new 0 0 155 44.1;" xml:space="preserve">
<style type="text/css">
	.st0{fill:#606060;}
	.st1{fill:#FFFFFF;}
	.st2{fill:url(#SVGID_1_);}
	.st3{fill:#0A0A56;}
	.st4{fill:url(#SVGID_2_);}
	.st5{fill:url(#SVGID_3_);}
</style>
<path class="st0" d="M8.1,38.7L8.1,38.7L8.1,38.7L8.1,38.7z"/>
<path class="st1" d="M22,12.5l0.1,0.1L22,12.5z"/>
<g>
	<path class="st1" d="M71.5,22.7l-1.7,9.9c-0.1,0.3-0.4,0.6-0.7,0.6h-3.6c-0.3,0-0.5-0.2-0.5-0.5v-0.1l1.7-9.9
		c0.1-0.5,0.1-1,0.1-1.3c0-1.1-0.7-1.5-1.6-1.5c-1.1,0-2.6,0.6-3.2,1l-2.1,11.7c-0.1,0.3-0.4,0.6-0.7,0.6h-3.6
		c-0.3,0-0.5-0.2-0.5-0.5v-0.1l2.8-15.9c0.1-0.3,0.4-0.6,0.7-0.6h3.2c0.3,0,0.5,0.2,0.5,0.5v0.1l-0.1,0.7c1.3-1,3.1-1.6,4.7-1.6
		c2.6,0,4.8,1.4,4.8,4.9C71.7,21.5,71.6,22.1,71.5,22.7z"/>
	<path class="st1" d="M82.9,15.1l-0.2,1.1h2.5c0.5,0,0.6,0.3,0.5,0.6l-0.4,2.4c-0.1,0.5-0.2,0.6-0.7,0.6h-2.5l-2.4,13.5
		c-0.8,4.6-3,5.1-6.2,5.1c-0.7,0-1.4-0.1-2.1-0.3c-0.2-0.1-0.5-0.2-0.5-0.4c0,0,0,0,0-0.1l0.4-2.3c0.1-0.4,0.3-0.5,0.6-0.5H73
		c1.3,0,1.6-0.1,1.8-1.5l2.4-13.5l-2.3-0.4c-0.4-0.1-0.5-0.4-0.5-0.8l0.3-1.8c0.1-0.5,0.3-0.6,0.7-0.6h2.3l0.2-1.1
		c0.7-4.5,2.9-5.1,6.2-5.1c0.7,0,1.5,0.1,2.1,0.3c0.3,0.1,0.5,0.2,0.5,0.5L86.5,13c-0.1,0.4-0.2,0.6-0.7,0.6h-1.6
		C83.3,13.6,83.1,13.8,82.9,15.1z"/>
	<path class="st1" d="M97.7,16.8l-0.4,2.4c-0.1,0.3-0.4,0.6-0.7,0.6h-2.4l-1.6,8.7c-0.1,0.4-0.1,0.6-0.1,0.8c0,0.4,0.2,0.6,0.8,0.6
		h1.5c0.3,0,0.5,0.1,0.5,0.4v0.1l-0.4,2.3c-0.1,0.3-0.3,0.5-0.7,0.6c-0.9,0.1-1.6,0.2-2.4,0.2c-2.7,0-4.2-1-4.2-3.6
		c0-0.4,0.1-1,0.1-1.5l1.5-8.6L87,19.4c-0.3-0.1-0.5-0.2-0.5-0.5v-0.1l0.3-2c0.1-0.3,0.4-0.6,0.7-0.6h2.4l0.4-2.4
		c0.1-0.3,0.4-0.5,0.7-0.6l3.8-0.6h0.1c0.3,0,0.4,0.1,0.4,0.4v0.1l-0.6,3.2h2.4C97.5,16.2,97.7,16.4,97.7,16.8
		C97.7,16.7,97.7,16.7,97.7,16.8z"/>
	<path class="st1" d="M105.5,23.1l-0.4,2.2c-0.1,0.3-0.4,0.5-0.7,0.5h-5.8c-0.3,0-0.5-0.2-0.5-0.4v-0.1l0.4-2.2
		c0.1-0.3,0.4-0.6,0.7-0.6h5.8C105.3,22.5,105.5,22.7,105.5,23.1C105.5,23,105.5,23.1,105.5,23.1z"/>
	<path class="st1" d="M124.1,10.4c0.4,0,0.6,0.1,0.5,0.6L121,31.9c-0.1,0.5-0.2,0.7-1.1,0.9c-1.8,0.4-4.2,0.8-6.5,0.8
		c-4,0-6.2-2.5-6.2-6.1c0-0.5,0-1,0.1-1.5l0.4-2.3c0.9-5.5,3.6-7.6,8.8-7.6c0.6,0,1.6,0.1,2.4,0.2l0.9-5.2c0.1-0.3,0.3-0.6,0.7-0.6
		L124.1,10.4L124.1,10.4z M115.8,19.9c-2.2,0-2.9,1.2-3.3,3.6l-0.4,2.3c-0.1,0.6-0.1,1.1-0.1,1.6c0,1.4,0.5,2.1,2.2,2.1
		c1,0,1.9-0.1,2.5-0.2l1.6-9.3C117.6,20,116.6,19.9,115.8,19.9z"/>
	<path class="st1" d="M140.5,23.7l-0.4,2.1c-1,5.1-3.5,7.8-8.8,7.8c-4.1,0-6.3-2.6-6.3-6.1c0-0.5,0-1.1,0.1-1.7l0.4-2.1
		c1-5.4,3.9-7.8,8.8-7.8c4,0,6.3,2.4,6.3,6C140.7,22.5,140.5,23.3,140.5,23.7z M133.6,20.1c-1.7,0-2.8,1-3.3,3.6l-0.4,2.1
		c-0.1,0.5-0.1,1-0.1,1.4c0,1.6,0.7,2.2,2.2,2.2c1.9,0,2.8-1.3,3.3-3.7l0.4-2.1c0.1-0.5,0.1-1,0.1-1.4
		C135.8,20.8,135.1,20.1,133.6,20.1z"/>
	<path class="st1" d="M154.6,16.8l-0.4,2.4c-0.1,0.3-0.4,0.6-0.7,0.6h-2.4l-1.6,8.7c-0.1,0.4-0.1,0.6-0.1,0.8c0,0.4,0.2,0.6,0.8,0.6
		h1.5c0.3,0,0.5,0.1,0.5,0.4v0.1l-0.4,2.3c-0.1,0.3-0.3,0.5-0.7,0.6c-0.9,0.1-1.6,0.2-2.4,0.2c-2.7,0-4.2-1-4.2-3.6
		c0-0.4,0.1-1,0.1-1.5l1.5-8.6l-2.3-0.4c-0.3-0.1-0.5-0.2-0.5-0.5v-0.1l0.3-2c0.1-0.3,0.4-0.6,0.7-0.6h2.4l0.4-2.4
		c0.1-0.3,0.4-0.5,0.7-0.6l3.8-0.6h0.1c0.3,0,0.4,0.1,0.4,0.4v0.1l-0.6,3.2h2.4C154.4,16.2,154.6,16.4,154.6,16.8
		C154.6,16.7,154.6,16.7,154.6,16.8z"/>
</g>
<linearGradient id="SVGID_1_" gradientUnits="userSpaceOnUse" x1="1.3554" y1="15.9024" x2="9.3317" y2="6.2983" gradientTransform="matrix(1 0 0 -1 0 46)">
	<stop  offset="0" style="stop-color:#00FFFF"/>
	<stop  offset="9.230000e-02" style="stop-color:#00E2FF"/>
	<stop  offset="0.2928" style="stop-color:#0099FF"/>
	<stop  offset="0.5839" style="stop-color:#0025FF"/>
	<stop  offset="0.674" style="stop-color:#0000FF"/>
</linearGradient>
<path class="st2" d="M8.4,38.6C8.4,38.6,8.4,38.6,8.4,38.6C8.4,38.6,8.4,38.6,8.4,38.6L8.4,38.6z"/>
<polygon class="st3" points="22,13 22,13.1 22,13 "/>
<path class="st3" d="M22.3,0.6c-11.9,0-21.5,9.6-21.5,21.5c0,6.6,3,12.5,7.7,16.5l8.9-15.4l2.3-3.9l3.3,12.2l3.9-1.1l0.3-0.6
	l8.4-14.4l0.5,1.3c1.7,4.2,1.4,9-0.9,12.9c-2,3.4-5.2,5.8-8.9,6.8c-1.8,0.5-3.7,0.6-5.6,0.4c-1.9-0.2-3.7-0.8-5.3-1.7
	c0,0-6.8,3.3-6.9,3.4c3.7,3.1,8.6,5,13.8,5.1c11.9,0,21.5-9.6,21.5-21.5S34.2,0.7,22.3,0.6z M25.3,25.3L22,13.1L18,14.2l-0.3,0.6
	l-3.8,6.5l-4.6,7.9l-0.5-1.3c-1.7-4.2-1.4-9,0.9-12.9c2-3.4,5.2-5.8,8.9-6.8c1.8-0.5,3.7-0.6,5.6-0.4c1.9,0.2,3.7,0.8,5.3,1.7
	c0,0,0,0,0,0C29.8,9.3,36.4,6,36.4,6L25.3,25.3z"/>
<linearGradient id="SVGID_2_" gradientUnits="userSpaceOnUse" x1="20.2488" y1="31.5935" x2="43.9275" y2="3.0824" gradientTransform="matrix(1 0 0 -1 0 46)">
	<stop  offset="0" style="stop-color:#00FFFF"/>
	<stop  offset="9.230000e-02" style="stop-color:#00E2FF"/>
	<stop  offset="0.2928" style="stop-color:#0099FF"/>
	<stop  offset="0.5839" style="stop-color:#0025FF"/>
	<stop  offset="0.674" style="stop-color:#0000FF"/>
</linearGradient>
<path class="st4" d="M29.5,9.4c-1.6-0.9-3.4-1.5-5.3-1.7c-1.9-0.2-3.8-0.1-5.6,0.4c-3.8,1-7,3.5-8.9,6.8c-2.3,3.9-2.6,8.7-0.9,12.9
	l0.5,1.3l4.6-7.9l3.8-6.5l0.3-0.6l3.9-1.1l0-0.1h0l0,0.1l3.3,12.2L36.4,6C36.4,6,29.8,9.3,29.5,9.4C29.5,9.4,29.5,9.4,29.5,9.4z"/>
<linearGradient id="SVGID_3_" gradientUnits="userSpaceOnUse" x1="15.0766" y1="27.2979" x2="38.7553" y2="-1.2132" gradientTransform="matrix(1 0 0 -1 0 46)">
	<stop  offset="0" style="stop-color:#00FFFF"/>
	<stop  offset="9.230000e-02" style="stop-color:#00E2FF"/>
	<stop  offset="0.2928" style="stop-color:#0099FF"/>
	<stop  offset="0.5839" style="stop-color:#0025FF"/>
	<stop  offset="0.674" style="stop-color:#0000FF"/>
</linearGradient>
<path class="st5" d="M20.7,36.9c1.9,0.2,3.8,0.1,5.6-0.4c3.8-1,7-3.5,8.9-6.8c2.3-3.9,2.6-8.7,0.9-12.9l-0.5-1.3l-8.4,14.4l-0.3,0.6
	l-3.9,1.1l-3.3-12.2l-2.3,3.9L8.4,38.6c0,0,0,0,0,0c0.1-0.1,6.9-3.4,6.9-3.4C17,36.1,18.8,36.7,20.7,36.9z"/>
</svg>
