<?xml version="1.0" encoding="utf-8"?>
<!-- Generator: Adobe Illustrator 23.1.1, SVG Export Plug-In . SVG Version: 6.00 Build 0)  -->
<svg version="1.1" id="Capa_1" xmlns="http://www.w3.org/2000/svg" xmlns:xlink="http://www.w3.org/1999/xlink" x="0px" y="0px"
	 viewBox="0 0 200 200" style="enable-background:new 0 0 200 200;" xml:space="preserve">
<style type="text/css">
	.st0{fill:url(#SVGID_1_);}
	.st1{fill:#0A0A56;}
	.st2{fill:url(#SVGID_2_);}
	.st3{fill:url(#SVGID_3_);}
</style>
<linearGradient id="SVGID_1_" gradientUnits="userSpaceOnUse" x1="4.1531" y1="65.7835" x2="40.5028" y2="22.0155" gradientTransform="matrix(1 0 0 -1 0 202)">
	<stop  offset="0" style="stop-color:#00FFFF"/>
	<stop  offset="9.230000e-02" style="stop-color:#00E2FF"/>
	<stop  offset="0.2928" style="stop-color:#0099FF"/>
	<stop  offset="0.5839" style="stop-color:#0025FF"/>
	<stop  offset="0.674" style="stop-color:#0000FF"/>
</linearGradient>
<path class="st0" d="M36.3,175C36.3,175,36.3,175,36.3,175C36.3,175,36.3,175,36.3,175L36.3,175z"/>
<polygon class="st1" points="98.1,58.2 98.2,58.6 98.1,58.2 "/>
<path class="st1" d="M99.6,2C45.4,1.9,1.5,45.8,1.5,99.9C1.4,130,15,157,36.3,175l40.6-70.1l10.4-17.9l14.9,55.8l18-5l1.6-2.7
	l38.1-65.8l2.5,6.1c7.8,19.2,6.4,41-4,59c-8.9,15.4-23.5,26.6-40.8,31.2c-8.3,2.2-16.9,2.8-25.4,1.8c-8.5-1-16.7-3.7-24.2-7.8
	c-0.1,0-31.1,15.2-31.6,15.5c17,14.4,39,23,63,23c54.1,0.1,98-43.8,98.1-97.9S153.7,2.1,99.6,2z M113.1,114.4L98.2,58.6l-18,5
	l-1.6,2.7L61.5,95.9l-20.9,36.2l-2.5-6.1c-7.8-19.2-6.4-41,4-59c8.9-15.4,23.5-26.6,40.8-31.2c8.3-2.2,16.9-2.8,25.4-1.8
	c8.5,1,16.7,3.7,24.2,7.8c0.1,0,0.1-0.1,0.2-0.1c1-0.5,31.4-15.4,31.4-15.4L113.1,114.4z"/>
<linearGradient id="SVGID_2_" gradientUnits="userSpaceOnUse" x1="90.2549" y1="137.2918" x2="198.1649" y2="7.3594" gradientTransform="matrix(1 0 0 -1 0 202)">
	<stop  offset="0" style="stop-color:#00FFFF"/>
	<stop  offset="9.230000e-02" style="stop-color:#00E2FF"/>
	<stop  offset="0.2928" style="stop-color:#0099FF"/>
	<stop  offset="0.5839" style="stop-color:#0025FF"/>
	<stop  offset="0.674" style="stop-color:#0000FF"/>
</linearGradient>
<path class="st2" d="M132.4,41.8c-7.5-4.1-15.7-6.8-24.2-7.8c-8.5-1-17.1-0.4-25.4,1.8c-17.2,4.6-31.8,15.8-40.8,31.2
	c-10.4,18-11.9,39.7-4,59l2.5,6.1l20.9-36.2l17.2-29.6l1.6-2.7l18-5l-0.1-0.4h0l0.1,0.4l14.9,55.8l51-88.1c0,0-30.5,14.9-31.4,15.4
	C132.5,41.8,132.5,41.8,132.4,41.8z"/>
<linearGradient id="SVGID_3_" gradientUnits="userSpaceOnUse" x1="66.6838" y1="117.7158" x2="174.5937" y2="-12.2166" gradientTransform="matrix(1 0 0 -1 0 202)">
	<stop  offset="0" style="stop-color:#00FFFF"/>
	<stop  offset="9.230000e-02" style="stop-color:#00E2FF"/>
	<stop  offset="0.2928" style="stop-color:#0099FF"/>
	<stop  offset="0.5839" style="stop-color:#0025FF"/>
	<stop  offset="0.674" style="stop-color:#0000FF"/>
</linearGradient>
<path class="st3" d="M92.1,167.3c8.5,1,17.1,0.4,25.4-1.8c17.2-4.6,31.8-15.8,40.8-31.2c10.4-18,11.9-39.7,4-59l-2.5-6.1L121.7,135
	l-1.6,2.7l-18,5L87.3,86.9l-10.4,17.9L36.3,175c0,0,0,0,0,0c0.5-0.2,31.6-15.5,31.6-15.5C75.4,163.6,83.6,166.2,92.1,167.3z"/>
</svg>
