<?xml version="1.0" encoding="utf-8"?>
<!-- Generator: Adobe Illustrator 23.1.1, SVG Export Plug-In . SVG Version: 6.00 Build 0)  -->
<svg version="1.1" id="Layer_1" xmlns="http://www.w3.org/2000/svg" xmlns:xlink="http://www.w3.org/1999/xlink" x="0px" y="0px"
	 viewBox="0 0 50 50" style="enable-background:new 0 0 50 50;" xml:space="preserve">
<style type="text/css">
	.st0{fill:#ffffff;enable-background:new;}
</style>
<rect x="0.833" y="0.958" class="st0" width="0.639" height="0.639"/>
<rect x="0.833" y="4.893" class="st0" width="0.639" height="0.639"/>
<rect x="0.833" y="8.828" class="st0" width="0.639" height="0.639"/>
<rect x="0.833" y="12.763" class="st0" width="0.639" height="0.639"/>
<rect x="0.833" y="16.698" class="st0" width="0.639" height="0.639"/>
<rect x="0.833" y="20.633" class="st0" width="0.639" height="0.639"/>
<rect x="0.833" y="24.568" class="st0" width="0.639" height="0.639"/>
<rect x="0.833" y="28.503" class="st0" width="0.639" height="0.639"/>
<rect x="0.833" y="32.438" class="st0" width="0.639" height="0.639"/>
<rect x="0.833" y="36.373" class="st0" width="0.639" height="0.639"/>
<rect x="0.833" y="40.308" class="st0" width="0.639" height="0.639"/>
<rect x="0.833" y="44.242" class="st0" width="0.639" height="0.639"/>
<rect x="0.833" y="48.177" class="st0" width="0.639" height="0.639"/>
<rect x="5.156" y="0.958" class="st0" width="0.639" height="0.639"/>
<rect x="5.156" y="4.893" class="st0" width="0.639" height="0.639"/>
<rect x="5.156" y="8.828" class="st0" width="0.639" height="0.639"/>
<rect x="5.156" y="12.763" class="st0" width="0.639" height="0.639"/>
<rect x="5.156" y="16.698" class="st0" width="0.639" height="0.639"/>
<rect x="5.156" y="20.633" class="st0" width="0.639" height="0.639"/>
<rect x="5.156" y="24.568" class="st0" width="0.639" height="0.639"/>
<rect x="5.156" y="28.503" class="st0" width="0.639" height="0.639"/>
<rect x="5.156" y="32.438" class="st0" width="0.639" height="0.639"/>
<rect x="5.156" y="36.373" class="st0" width="0.639" height="0.639"/>
<rect x="5.156" y="40.308" class="st0" width="0.639" height="0.639"/>
<rect x="5.156" y="44.242" class="st0" width="0.639" height="0.639"/>
<rect x="5.156" y="48.177" class="st0" width="0.639" height="0.639"/>
<rect x="9.479" y="0.958" class="st0" width="0.639" height="0.639"/>
<rect x="9.479" y="4.893" class="st0" width="0.639" height="0.639"/>
<rect x="9.479" y="8.828" class="st0" width="0.639" height="0.639"/>
<rect x="9.479" y="12.763" class="st0" width="0.639" height="0.639"/>
<rect x="9.479" y="16.698" class="st0" width="0.639" height="0.639"/>
<rect x="9.479" y="20.633" class="st0" width="0.639" height="0.639"/>
<rect x="9.479" y="24.568" class="st0" width="0.639" height="0.639"/>
<rect x="9.479" y="28.503" class="st0" width="0.639" height="0.639"/>
<rect x="9.479" y="32.438" class="st0" width="0.639" height="0.639"/>
<rect x="9.479" y="36.373" class="st0" width="0.639" height="0.639"/>
<rect x="9.479" y="40.308" class="st0" width="0.639" height="0.639"/>
<rect x="9.479" y="44.242" class="st0" width="0.639" height="0.639"/>
<rect x="9.479" y="48.177" class="st0" width="0.639" height="0.639"/>
<rect x="13.802" y="0.958" class="st0" width="0.639" height="0.639"/>
<rect x="13.802" y="4.893" class="st0" width="0.639" height="0.639"/>
<rect x="13.802" y="8.828" class="st0" width="0.639" height="0.639"/>
<rect x="13.802" y="12.763" class="st0" width="0.639" height="0.639"/>
<rect x="13.802" y="16.698" class="st0" width="0.639" height="0.639"/>
<rect x="13.802" y="20.633" class="st0" width="0.639" height="0.639"/>
<rect x="13.802" y="24.568" class="st0" width="0.639" height="0.639"/>
<rect x="13.802" y="28.503" class="st0" width="0.639" height="0.639"/>
<rect x="13.802" y="32.438" class="st0" width="0.639" height="0.639"/>
<rect x="13.802" y="36.373" class="st0" width="0.639" height="0.639"/>
<rect x="13.802" y="40.308" class="st0" width="0.639" height="0.639"/>
<rect x="13.802" y="44.242" class="st0" width="0.639" height="0.639"/>
<rect x="13.802" y="48.177" class="st0" width="0.639" height="0.639"/>
<rect x="18.125" y="0.958" class="st0" width="0.639" height="0.639"/>
<rect x="18.125" y="4.893" class="st0" width="0.639" height="0.639"/>
<rect x="18.125" y="8.828" class="st0" width="0.639" height="0.639"/>
<rect x="18.125" y="12.763" class="st0" width="0.639" height="0.639"/>
<rect x="18.125" y="16.698" class="st0" width="0.639" height="0.639"/>
<rect x="18.125" y="20.633" class="st0" width="0.639" height="0.639"/>
<rect x="18.125" y="24.568" class="st0" width="0.639" height="0.639"/>
<rect x="18.125" y="28.503" class="st0" width="0.639" height="0.639"/>
<rect x="18.125" y="32.438" class="st0" width="0.639" height="0.639"/>
<rect x="18.125" y="36.373" class="st0" width="0.639" height="0.639"/>
<rect x="18.125" y="40.308" class="st0" width="0.639" height="0.639"/>
<rect x="18.125" y="44.242" class="st0" width="0.639" height="0.639"/>
<rect x="18.125" y="48.177" class="st0" width="0.639" height="0.639"/>
<rect x="22.448" y="0.958" class="st0" width="0.639" height="0.639"/>
<rect x="22.448" y="4.893" class="st0" width="0.639" height="0.639"/>
<rect x="22.448" y="8.828" class="st0" width="0.639" height="0.639"/>
<rect x="22.448" y="12.763" class="st0" width="0.639" height="0.639"/>
<rect x="22.448" y="16.698" class="st0" width="0.639" height="0.639"/>
<rect x="22.448" y="20.633" class="st0" width="0.639" height="0.639"/>
<rect x="22.448" y="24.568" class="st0" width="0.639" height="0.639"/>
<rect x="22.448" y="28.503" class="st0" width="0.639" height="0.639"/>
<rect x="22.448" y="32.438" class="st0" width="0.639" height="0.639"/>
<rect x="22.448" y="36.373" class="st0" width="0.639" height="0.639"/>
<rect x="22.448" y="40.308" class="st0" width="0.639" height="0.639"/>
<rect x="22.448" y="44.242" class="st0" width="0.639" height="0.639"/>
<rect x="22.448" y="48.177" class="st0" width="0.639" height="0.639"/>
<rect x="26.771" y="0.958" class="st0" width="0.639" height="0.639"/>
<rect x="26.771" y="4.893" class="st0" width="0.639" height="0.639"/>
<rect x="26.771" y="8.828" class="st0" width="0.639" height="0.639"/>
<rect x="26.771" y="12.763" class="st0" width="0.639" height="0.639"/>
<rect x="26.771" y="16.698" class="st0" width="0.639" height="0.639"/>
<rect x="26.771" y="20.633" class="st0" width="0.639" height="0.639"/>
<rect x="26.771" y="24.568" class="st0" width="0.639" height="0.639"/>
<rect x="26.771" y="28.503" class="st0" width="0.639" height="0.639"/>
<rect x="26.771" y="32.438" class="st0" width="0.639" height="0.639"/>
<rect x="26.771" y="36.373" class="st0" width="0.639" height="0.639"/>
<rect x="26.771" y="40.308" class="st0" width="0.639" height="0.639"/>
<rect x="26.771" y="44.242" class="st0" width="0.639" height="0.639"/>
<rect x="26.771" y="48.177" class="st0" width="0.639" height="0.639"/>
<rect x="31.094" y="0.958" class="st0" width="0.639" height="0.639"/>
<rect x="31.094" y="4.893" class="st0" width="0.639" height="0.639"/>
<rect x="31.094" y="8.828" class="st0" width="0.639" height="0.639"/>
<rect x="31.094" y="12.763" class="st0" width="0.639" height="0.639"/>
<rect x="31.094" y="16.698" class="st0" width="0.639" height="0.639"/>
<rect x="31.094" y="20.633" class="st0" width="0.639" height="0.639"/>
<rect x="31.094" y="24.568" class="st0" width="0.639" height="0.639"/>
<rect x="31.094" y="28.503" class="st0" width="0.639" height="0.639"/>
<rect x="31.094" y="32.438" class="st0" width="0.639" height="0.639"/>
<rect x="31.094" y="36.373" class="st0" width="0.639" height="0.639"/>
<rect x="31.094" y="40.308" class="st0" width="0.639" height="0.639"/>
<rect x="31.094" y="44.242" class="st0" width="0.639" height="0.639"/>
<rect x="31.094" y="48.177" class="st0" width="0.639" height="0.639"/>
<rect x="35.417" y="0.958" class="st0" width="0.639" height="0.639"/>
<rect x="35.417" y="4.893" class="st0" width="0.639" height="0.639"/>
<rect x="35.417" y="8.828" class="st0" width="0.639" height="0.639"/>
<rect x="35.417" y="12.763" class="st0" width="0.639" height="0.639"/>
<rect x="35.417" y="16.698" class="st0" width="0.639" height="0.639"/>
<rect x="35.417" y="20.633" class="st0" width="0.639" height="0.639"/>
<rect x="35.417" y="24.568" class="st0" width="0.639" height="0.639"/>
<rect x="35.417" y="28.503" class="st0" width="0.639" height="0.639"/>
<rect x="35.417" y="32.438" class="st0" width="0.639" height="0.639"/>
<rect x="35.417" y="36.373" class="st0" width="0.639" height="0.639"/>
<rect x="35.417" y="40.308" class="st0" width="0.639" height="0.639"/>
<rect x="35.417" y="44.242" class="st0" width="0.639" height="0.639"/>
<rect x="35.417" y="48.177" class="st0" width="0.639" height="0.639"/>
<rect x="39.74" y="0.958" class="st0" width="0.639" height="0.639"/>
<rect x="39.74" y="4.893" class="st0" width="0.639" height="0.639"/>
<rect x="39.74" y="8.828" class="st0" width="0.639" height="0.639"/>
<rect x="39.74" y="12.763" class="st0" width="0.639" height="0.639"/>
<rect x="39.74" y="16.698" class="st0" width="0.639" height="0.639"/>
<rect x="39.74" y="20.633" class="st0" width="0.639" height="0.639"/>
<rect x="39.74" y="24.568" class="st0" width="0.639" height="0.639"/>
<rect x="39.74" y="28.503" class="st0" width="0.639" height="0.639"/>
<rect x="39.74" y="32.438" class="st0" width="0.639" height="0.639"/>
<rect x="39.74" y="36.373" class="st0" width="0.639" height="0.639"/>
<rect x="39.74" y="40.308" class="st0" width="0.639" height="0.639"/>
<rect x="39.74" y="44.242" class="st0" width="0.639" height="0.639"/>
<rect x="39.74" y="48.177" class="st0" width="0.639" height="0.639"/>
<rect x="44.063" y="0.958" class="st0" width="0.639" height="0.639"/>
<rect x="44.063" y="4.893" class="st0" width="0.639" height="0.639"/>
<rect x="44.063" y="8.828" class="st0" width="0.639" height="0.639"/>
<rect x="44.063" y="12.763" class="st0" width="0.639" height="0.639"/>
<rect x="44.063" y="16.698" class="st0" width="0.639" height="0.639"/>
<rect x="44.063" y="20.633" class="st0" width="0.639" height="0.639"/>
<rect x="44.063" y="24.568" class="st0" width="0.639" height="0.639"/>
<rect x="44.063" y="28.503" class="st0" width="0.639" height="0.639"/>
<rect x="44.063" y="32.438" class="st0" width="0.639" height="0.639"/>
<rect x="44.063" y="36.373" class="st0" width="0.639" height="0.639"/>
<rect x="44.063" y="40.308" class="st0" width="0.639" height="0.639"/>
<rect x="44.063" y="44.242" class="st0" width="0.639" height="0.639"/>
<rect x="44.063" y="48.177" class="st0" width="0.639" height="0.639"/>
<rect x="48.386" y="0.958" class="st0" width="0.639" height="0.639"/>
<rect x="48.386" y="4.893" class="st0" width="0.639" height="0.639"/>
<rect x="48.386" y="8.828" class="st0" width="0.639" height="0.639"/>
<rect x="48.386" y="12.763" class="st0" width="0.639" height="0.639"/>
<rect x="48.386" y="16.698" class="st0" width="0.639" height="0.639"/>
<rect x="48.386" y="20.633" class="st0" width="0.639" height="0.639"/>
<rect x="48.386" y="24.568" class="st0" width="0.639" height="0.639"/>
<rect x="48.386" y="28.503" class="st0" width="0.639" height="0.639"/>
<rect x="48.386" y="32.438" class="st0" width="0.639" height="0.639"/>
<rect x="48.386" y="36.373" class="st0" width="0.639" height="0.639"/>
<rect x="48.386" y="40.308" class="st0" width="0.639" height="0.639"/>
<rect x="48.386" y="44.242" class="st0" width="0.639" height="0.639"/>
<rect x="48.386" y="48.177" class="st0" width="0.639" height="0.639"/>
</svg>
