<?xml version="1.0" encoding="utf-8"?>
<!-- Generator: Adobe Illustrator 23.1.1, SVG Export Plug-In . SVG Version: 6.00 Build 0)  -->
<svg version="1.1" id="Layer_1" xmlns="http://www.w3.org/2000/svg" xmlns:xlink="http://www.w3.org/1999/xlink" x="0px" y="0px"
	 viewBox="0 0 50 50" style="enable-background:new 0 0 50 50;" xml:space="preserve">
<style type="text/css">
	.st0{fill:#FFFFFF;}
</style>
<g>
	<path class="st0" d="M6.431,11.062C7.03,10.315,7.88,9.974,8.984,9.974h31.714c0.934,0,1.742,0.304,2.423,0.98
		c0.682,0.674,1.021,1.47,1.021,2.418l0.003-0.005c0,1.136-0.352,2.215-1.056,3.248c-0.702,1.034-1.577,1.915-2.627,2.648
		c-5.402,3.75-8.762,6.083-10.083,7.002c-0.145,0.1-0.448,0.318-0.917,0.656c-0.465,0.338-0.852,0.61-1.163,0.819
		c-0.307,0.208-0.681,0.441-1.121,0.7c-0.437,0.256-0.85,0.572-1.238,0.702c-0.388,0.129-0.746,0.316-1.079,0.316H24.82
		c-0.329,0-0.687-0.187-1.075-0.316s-0.801-0.385-1.24-0.641c-0.44-0.259-0.815-0.522-1.121-0.73
		c-0.308-0.208-0.694-0.497-1.164-0.835c-0.465-0.339-0.772-0.564-0.913-0.664c-1.309-0.919-3.192-2.235-5.647-3.935
		c-2.457-1.703-3.929-2.727-4.416-3.073c-0.889-0.604-1.729-1.433-2.52-2.49c-0.792-1.056-1.186-2.022-1.186-2.926
		C5.537,12.726,5.835,11.808,6.431,11.062z"/>
	<path class="st0" d="M44.498,36.799c0,0.948-0.513,1.778-1.188,2.453c-0.674,0.674-1.662,1.03-2.611,1.03H8.987
		c-0.949,0-1.765-0.356-2.44-1.03C5.87,38.577,5.53,37.747,5.53,36.799V19.693c1.082,0.704,1.361,1.329,2.18,1.875
		c5.201,3.533,8.769,6.01,10.712,7.432c0.816,0.603,1.483,1.074,1.994,1.412c0.51,0.338,1.19,0.507,2.036,0.857
		c0.849,0.352,1.638,0.353,2.372,0.353h0.042c0.732,0,1.521-0.001,2.371-0.353c0.847-0.352,1.525-0.608,2.035-0.945
		c0.511-0.336,1.175-0.764,1.994-1.368c2.442-1.765,6.194-4.221,10.904-7.41c0.816-0.559,1.245-1.162,2.328-1.85v0.02h-0.349
		c0,0,0.349-0.021,0.349-0.02C44.498,19.696,44.498,36.799,44.498,36.799z"/>
</g>
</svg>
