<?xml version="1.0" encoding="utf-8"?>
<!-- Generator: Adobe Illustrator 23.1.1, SVG Export Plug-In . SVG Version: 6.00 Build 0)  -->
<svg version="1.1" id="Layer_1" xmlns="http://www.w3.org/2000/svg" xmlns:xlink="http://www.w3.org/1999/xlink" x="0px" y="0px"
	 viewBox="0 0 50 50" style="enable-background:new 0 0 50 50;" xml:space="preserve">
<style type="text/css">
	.st0{fill:#E8E8E8;}
</style>
<g id="s1q6jt.tif">
	<g>
		<path fill="#E8E8E8" class="st0" d="M32.5,44.8c-5.1,0-10.2,0-15.2,0c-0.5-0.1-1-0.2-1.6-0.2C9.9,44.3,5.6,40.1,5.4,34.3
			c-0.2-6.2-0.2-12.4,0-18.7c0.1-5.1,3.5-8.9,8.4-10C14.9,5.5,16,5.4,17,5.2c5.3,0,10.6,0,15.8,0c0.5,0.1,0.9,0.2,1.4,0.2
			c5,0.3,8.8,3.4,10,8.3c0.3,1.2,0.4,2.4,0.5,3.6c0,5.1,0,10.2,0,15.2c-0.1,0.6-0.2,1.2-0.2,1.7c-0.3,5-3.4,8.8-8.3,10
			C35,44.5,33.7,44.6,32.5,44.8z M41,25L41,25c0-2.8,0.1-5.6,0-8.4c-0.2-4.7-2.8-7.5-7.6-7.6c-5.6-0.1-11.3-0.1-16.9,0
			c-4.8,0.1-7.5,2.8-7.6,7.6c-0.1,5.6-0.1,11.2,0,16.8c0.1,4.9,2.8,7.6,7.7,7.7c5.6,0.1,11.2,0.1,16.8,0c4.7-0.1,7.4-2.9,7.5-7.5
			C41.1,30.7,41,27.8,41,25z"/>
		<path fill="#E8E8E8" class="st0" d="M14.8,24.9c0-5.7,4.6-10.1,10.2-10.1c5.7,0,10.1,4.6,10.1,10.2c-0.1,5.6-4.5,10.1-10.2,10.1
			C19.3,35.1,14.8,30.6,14.8,24.9z M25,18.4c-3.7,0-6.6,2.9-6.6,6.5s2.9,6.6,6.5,6.6c3.7,0,6.6-2.8,6.7-6.5
			C31.5,21.4,28.7,18.5,25,18.4z"/>
		<path fill="#E8E8E8" class="st0" d="M35.5,12.1c1.4,0,2.4,1,2.4,2.4c0,1.3-1.1,2.4-2.4,2.4c-1.3,0-2.4-1.1-2.4-2.4C33.1,13.1,34.2,12.1,35.5,12.1
			z"/>
	</g>
</g>
</svg>
