<?xml version="1.0" encoding="utf-8"?>
<!-- Generator: Adobe Illustrator 23.1.1, SVG Export Plug-In . SVG Version: 6.00 Build 0)  -->
<svg version="1.1" id="Layer_1" xmlns="http://www.w3.org/2000/svg" xmlns:xlink="http://www.w3.org/1999/xlink" x="0px" y="0px"
	 viewBox="0 0 50 50" style="enable-background:new 0 0 50 50;" xml:space="preserve">
<style type="text/css">
	.st0{fill:#FFFFFF;}
</style>
<path class="st0" d="M15.177,44.35c-4.664,0-9.298,0-13.951,0c-0.039-0.428-0.032-0.791,0.279-1.159
	c1.596-1.89,3.16-3.807,4.732-5.717c0.441-0.536,0.625-1.15,0.543-1.843c-0.015-0.125-0.016-0.252-0.016-0.377
	c-0.001-6.744-0.008-13.488,0.01-20.231c0.002-0.744-0.201-1.33-0.691-1.897c-1.339-1.548-2.611-3.153-3.942-4.708
	C1.82,8.043,1.746,7.674,1.824,7.209c0.093-0.004,0.187-0.013,0.281-0.013c4.337-0.001,8.675,0.002,13.012-0.007
	c0.238-0.001,0.334,0.085,0.425,0.286c3.399,7.469,6.804,14.936,10.208,22.403c0.047,0.104,0.1,0.205,0.175,0.358
	c0.177-0.437,0.336-0.825,0.492-1.214c2.879-7.184,5.758-14.369,8.635-21.554c0.07-0.175,0.138-0.278,0.366-0.278
	c4.153,0.009,8.306,0.007,12.459,0.007c0.076,0,0.153,0.007,0.246,0.011C48.176,7.642,48.17,8,47.787,8.347
	c-1.178,1.068-2.309,2.189-3.46,3.288c-0.254,0.243-0.372,0.537-0.36,0.886c0.006,0.174,0.011,0.349,0.011,0.524
	c0.001,8.51,0.001,17.02,0,25.529c0,0.184-0.006,0.368-0.012,0.553c-0.01,0.349,0.112,0.641,0.363,0.886
	c1.188,1.159,2.369,2.324,3.56,3.478c0.296,0.286,0.103,0.619,0.173,0.951c-6.151,0-12.267,0-18.398,0
	c-0.058-0.437-0.043-0.796,0.334-1.143c1.149-1.057,2.248-2.169,3.377-3.249c0.301-0.288,0.441-0.609,0.44-1.028
	c-0.006-7.045-0.004-14.089-0.004-21.134c0-0.037-0.004-0.075-0.051-0.132c-0.039,0.091-0.08,0.18-0.116,0.272
	c-3.415,8.671-6.83,17.341-10.237,26.015c-0.097,0.246-0.206,0.356-0.478,0.327c-0.259-0.027-0.525-0.023-0.785-0.001
	c-0.23,0.019-0.338-0.065-0.434-0.275c-1.11-2.444-2.23-4.882-3.349-7.322c-2.862-6.244-5.725-12.489-8.588-18.733
	c-0.04-0.086-0.083-0.171-0.195-0.255c0,0.116,0,0.232,0,0.348c0,5.706-0.002,11.411,0.003,17.117c0,0.433-0.005,0.877,0.089,1.294
	c0.071,0.317,0.25,0.637,0.458,0.893c1.574,1.933,3.156,3.86,4.765,5.764C15.202,43.561,15.206,43.918,15.177,44.35z"/>
</svg>
