<?xml version="1.0" encoding="utf-8"?>
<!-- Generator: Adobe Illustrator 23.1.1, SVG Export Plug-In . SVG Version: 6.00 Build 0)  -->
<svg version="1.1" id="Layer_1" xmlns="http://www.w3.org/2000/svg" xmlns:xlink="http://www.w3.org/1999/xlink" x="0px" y="0px"
	 viewBox="0 0 50 50" style="enable-background:new 0 0 50 50;" xml:space="preserve">
<style type="text/css">
	.st0{fill:#FFFFFF;}
</style>
<g id="KmCKLt.tif">
	<g>
		<path class="st0" d="M24.013,45.757c-1.062-0.094-2.129-0.147-3.185-0.288c-4.859-0.649-9.312-2.279-12.995-5.631
			c-2.231-2.03-3.752-4.492-4.23-7.532c-0.029-0.181-0.219-0.374-0.383-0.492c-2.269-1.632-3.336-3.863-3.21-6.634
			c0.169-3.741,3.124-6.713,6.852-6.916c1.33-0.072,2.599,0.239,3.745,0.942c0.319,0.196,0.551,0.213,0.891,0.022
			c3.262-1.836,6.785-2.808,10.5-3.116c1.068-0.088,1.069-0.071,1.425-1.096c1.066-3.074,2.133-6.148,3.2-9.221
			c0.052-0.15,0.114-0.296,0.189-0.49c1.103,0.262,2.197,0.52,3.291,0.781c1.456,0.347,2.911,0.703,4.371,1.034
			c0.14,0.032,0.383-0.037,0.461-0.145c1.026-1.408,2.378-2.236,4.12-2.403c0.061-0.006,0.12-0.039,0.18-0.059
			c0.223,0,0.447,0,0.67,0c0.139,0.031,0.276,0.073,0.417,0.091C43.369,5,45.588,8.041,45.03,11.06
			c-0.538,2.908-3.133,4.934-5.978,4.655c-3.323-0.326-5.283-3.21-5.081-5.792c0.023-0.297-0.098-0.376-0.358-0.435
			c-1.211-0.275-2.417-0.572-3.624-0.861c-0.521-0.125-1.041-0.249-1.582-0.379c-0.904,2.601-1.792,5.155-2.69,7.737
			c0.133,0.017,0.209,0.032,0.286,0.036c4.163,0.207,8.122,1.168,11.785,3.21c0.268,0.15,0.442,0.067,0.65-0.056
			c1.1-0.649,2.301-0.954,3.563-0.914c3.138,0.099,5.823,2.222,6.687,5.243c0.126,0.442,0.21,0.896,0.313,1.345
			c0,0.544,0,1.087,0,1.631c-0.035,0.138-0.079,0.274-0.104,0.414c-0.323,1.831-1.17,3.369-2.612,4.541
			c-0.393,0.319-0.617,0.628-0.709,1.149c-0.619,3.505-2.605,6.158-5.359,8.267c-3.738,2.863-8.042,4.257-12.68,4.717
			c-0.758,0.075-1.519,0.127-2.278,0.19C24.843,45.757,24.428,45.757,24.013,45.757z M25.567,43.249
			c2.626,0.003,6.032-0.654,9.328-2.08c2.677-1.158,4.989-2.803,6.713-5.22c2.163-3.033,2.167-7.152,0.01-10.186
			c-1.761-2.476-4.144-4.13-6.883-5.306c-3.576-1.535-7.329-2.107-11.207-1.959c-3.716,0.142-7.262,0.947-10.559,2.697
			c-2.541,1.349-4.709,3.127-6.031,5.756c-1.306,2.598-1.302,5.228,0.014,7.824c1.331,2.625,3.502,4.396,6.044,5.743
			C16.626,42.443,20.538,43.2,25.567,43.249z M42.604,10.156c0.009-1.712-1.397-3.132-3.09-3.121
			c-1.69,0.011-3.066,1.392-3.077,3.088c-0.011,1.715,1.384,3.121,3.091,3.116C41.216,13.235,42.595,11.853,42.604,10.156z
			 M3.692,28.886c0.67-3.273,2.529-5.736,5.022-7.818c-2.135-0.747-4.269-0.001-5.447,1.851C2.092,24.768,2.259,27.411,3.692,28.886
			z M40.472,21.033c2.458,2.023,4.278,4.42,5.013,7.549c1.259-1.25,1.343-3.969,0.205-5.694
			C44.508,21.099,42.327,20.299,40.472,21.033z"/>
		<path class="st0" d="M24.62,40.307c-3.067-0.091-5.672-0.858-8.01-2.467c-0.672-0.462-0.84-1.228-0.422-1.823
			c0.403-0.573,1.163-0.659,1.823-0.222c3.931,2.606,7.946,2.664,12.034,0.385c0.292-0.163,0.573-0.346,0.869-0.502
			c0.642-0.338,1.366-0.146,1.705,0.442c0.323,0.561,0.145,1.301-0.437,1.682c-1.71,1.12-3.55,1.936-5.575,2.278
			C25.872,40.204,25.123,40.251,24.62,40.307z"/>
		<path class="st0" d="M20.484,28.325c0.01,1.81-1.45,3.298-3.261,3.326c-1.796,0.027-3.342-1.512-3.332-3.315
			c0.01-1.806,1.496-3.29,3.298-3.295C18.994,25.036,20.474,26.511,20.484,28.325z"/>
		<path class="st0" d="M28.107,28.347c-0.002-1.818,1.46-3.295,3.272-3.306c1.818-0.01,3.341,1.515,3.317,3.321
			c-0.024,1.809-1.52,3.296-3.308,3.289C29.585,31.644,28.11,30.158,28.107,28.347z"/>
	</g>
</g>
</svg>
