<?xml version="1.0" encoding="utf-8"?>
<!-- Generator: Adobe Illustrator 23.1.1, SVG Export Plug-In . SVG Version: 6.00 Build 0)  -->
<svg version="1.1" id="Layer_1" xmlns="http://www.w3.org/2000/svg" xmlns:xlink="http://www.w3.org/1999/xlink" x="0px" y="0px"
	 viewBox="0 0 50 50" style="enable-background:new 0 0 50 50;" xml:space="preserve">
<style type="text/css">
	.st0{fill:#FFFFFF;}
</style>
<path class="st0" d="M26.238,36.855c-1.586,1.518-3.158,3.023-4.729,4.528c-0.126,0.121-0.231,0.28-0.38,0.357
	c-0.468,0.24-0.952,0.45-1.43,0.671c-0.124-0.469-0.343-0.936-0.358-1.409c-0.092-2.877-0.115-5.756-0.214-8.632
	c-0.023-0.68,0.2-1.114,0.695-1.558c6.53-5.87,13.042-11.759,19.553-17.649c0.326-0.295,0.603-0.645,0.936-1.005
	c-0.731-0.532-1.257-0.179-1.732,0.098c-1.029,0.598-2.023,1.257-3.031,1.893c-7.247,4.577-14.497,9.15-21.733,13.743
	c-0.513,0.326-0.946,0.394-1.534,0.209c-3.296-1.039-6.61-2.022-9.911-3.047c-0.849-0.264-1.922-0.455-1.977-1.554
	c-0.055-1.097,0.935-1.558,1.796-1.895c4.732-1.853,9.48-3.667,14.225-5.487c9.652-3.704,19.322-7.362,28.949-11.131
	c2.698-1.056,3.964,0.721,3.535,2.927c-0.693,3.564-1.469,7.113-2.224,10.665c-1.721,8.099-3.454,16.195-5.176,24.294
	c-0.619,2.914-2.276,3.54-4.689,1.755c-3.388-2.506-6.775-5.013-10.164-7.519C26.532,37.024,26.405,36.958,26.238,36.855z"/>
</svg>
