<?xml version="1.0" encoding="utf-8"?>
<!-- Generator: Adobe Illustrator 23.1.1, SVG Export Plug-In . SVG Version: 6.00 Build 0)  -->
<svg version="1.1" id="Layer_1" xmlns="http://www.w3.org/2000/svg" xmlns:xlink="http://www.w3.org/1999/xlink" x="0px" y="0px"
	 viewBox="0 0 50 50" style="enable-background:new 0 0 50 50;" xml:space="preserve">
<style type="text/css">
	.st0{fill:#FFFFFF;}
</style>
<path class="st0" d="M46.3,11.8c-1.6,0.7-3.3,1.2-5,1.4c1.8-1.1,3.2-2.8,3.8-4.8c-1.7,1-3.6,1.7-5.6,2.1c-1.6-1.7-3.9-2.8-6.4-2.8
	c-4.8,0-8.8,3.9-8.8,8.8c0,0.7,0.1,1.4,0.2,2C17.4,18,11,14.6,6.6,9.3c-0.8,1.3-1.2,2.8-1.2,4.4c0,3,1.5,5.7,3.9,7.3
	c-1.4,0-2.8-0.4-4-1.1V20c0,4.2,3,7.8,7,8.6c-0.7,0.2-1.5,0.3-2.3,0.3c-0.6,0-1.1-0.1-1.6-0.2c1.1,3.5,4.3,6,8.2,6.1
	c-3,2.3-6.8,3.7-10.9,3.7c-0.7,0-1.4,0-2.1-0.1c3.9,2.5,8.5,3.9,13.4,3.9c16.2,0,25-13.3,25-24.9c0-0.4,0-0.8,0-1.1
	C43.7,15.1,45.2,13.5,46.3,11.8z"/>
</svg>
